<svg aria-hidden="true" style="width:0;height:0;position:absolute;overflow:hidden" xmlns="http://www.w3.org/2000/svg"><defs><symbol id="icon-logo" viewBox="0 0 37 32"><path d="M33.83 2.002c-3.419.196-10.214.902-14.409 3.475a.959.959 0 0 0-.454.823v22.742c0 .722.788 1.178 1.453.843 4.315-2.176 10.558-2.77 13.645-2.932 1.054-.055 1.873-.901 1.873-1.916V3.923c0-1.107-.957-1.984-2.107-1.92zM16.517 5.478C12.322 2.905 5.526 2.198 2.108 2.004.957 1.938 0 2.815 0 3.922v21.115c0 1.015.819 1.861 1.873 1.916 3.088.162 9.333.756 13.65 2.935.662.334 1.447-.122 1.447-.842V6.281c0-.34-.18-.637-.449-.803l-.004-.002z"/></symbol><symbol id="icon-fa-solid_university" viewBox="0 0 32 32"><path d="M31 8v1a.5.5 0 0 1-.5.5h-1.499v.75a.75.75 0 0 1-.75.75H3.75a.75.75 0 0 1-.75-.75V9.5H1.5A.5.5 0 0 1 1 9V8c0-.207.126-.385.306-.46l.003-.001 14.5-5.5a.49.49 0 0 1 .385.001l-.003-.001 14.501 5.5A.5.5 0 0 1 31 8v.001zm-1.5 19H2.499C1.671 27 1 27.671 1 28.499V29.5a.5.5 0 0 0 .5.5h28.999a.5.5 0 0 0 .5-.5v-1c0-.828-.671-1.499-1.499-1.499zM6 12v12H3.749a.75.75 0 0 0-.75.75V26h26v-1.25a.75.75 0 0 0-.75-.75h-2.251V12h-4v12h-4V12h-4v12H9.999V12H5.998z"/></symbol><symbol id="icon-fa-solid_book-reader" viewBox="0 0 32 32"><path d="M22 6a6 6 0 1 0-12 0 6 6 0 0 0 12 0zm-7.401 9.068c-3.708-2.268-9.714-2.894-12.736-3.066C.845 11.944 0 12.719 0 13.695V27.62c0 .896.724 1.643 1.655 1.691 2.729.143 8.251.667 12.066 2.589.585.295 1.28-.107 1.28-.741v-15.38c0-.3-.159-.564-.398-.71l-.004-.002zm15.539-3.065c-3.022.172-9.029.795-12.736 3.066a.85.85 0 0 0-.401.721v15.369c0 .637.697 1.04 1.284.744 3.815-1.92 9.333-2.445 12.061-2.587.931-.048 1.655-.795 1.655-1.691V13.699c0-.976-.847-1.751-1.862-1.693z"/></symbol><symbol id="icon-fa-solid_pencil-alt" viewBox="0 0 32 32"><path d="m31.119 8.881-2.881 2.881a.749.749 0 0 1-1.062 0l-6.938-6.938a.749.749 0 0 1 0-1.062L23.119.881c.544-.542 1.294-.877 2.122-.877s1.578.335 2.122.877l3.756 3.756c.544.542.881 1.293.881 2.122s-.337 1.58-.881 2.122zM17.763 6.237 1.351 22.649.025 30.244a1.501 1.501 0 0 0 1.737 1.737l7.594-1.331 16.412-16.411a.75.75 0 0 0 0-1.064l-6.937-6.938a.758.758 0 0 0-1.07 0zM7.756 21.243a.87.87 0 0 1 0-1.237l9.626-9.626a.87.87 0 0 1 1.237 0 .87.87 0 0 1 0 1.238l-9.625 9.625a.87.87 0 0 1-1.238 0zM5.5 26.501h2.999v2.267l-4.03.707-1.944-1.944.706-4.031H5.5v3z"/></symbol><symbol id="icon-linkedin" viewBox="0 0 32 32"><path d="M7.25 32V10.901H.688V32H7.25zM3.934 8.078c2.116 0 3.81-1.764 3.81-3.881 0-2.046-1.693-3.74-3.81-3.74-2.047 0-3.74 1.694-3.74 3.74 0 2.117 1.693 3.881 3.74 3.881zM31.736 32h.071V20.428c0-5.646-1.271-10.021-7.904-10.021-3.175 0-5.292 1.764-6.209 3.387h-.071v-2.893h-6.28V32h6.563V21.557c0-2.752.493-5.363 3.881-5.363 3.386 0 3.458 3.104 3.458 5.574V32h6.491z"/></symbol><symbol id="icon-youtube" viewBox="0 0 45 32"><path d="M43.665 5.831c-.486-1.944-2.027-3.484-3.89-3.97C36.292.889 22.519.889 22.519.889s-13.855 0-17.338.972c-1.862.486-3.403 2.027-3.889 3.97C.32 9.232.32 16.525.32 16.525s0 7.211.972 10.695c.486 1.944 2.025 3.401 3.889 3.889C8.665 32 22.519 32 22.519 32s13.773 0 17.256-.891c1.864-.486 3.404-1.944 3.89-3.889.972-3.484.972-10.695.972-10.695s0-7.291-.972-10.694zM17.982 23.087V9.962l11.505 6.562-11.505 6.562z"/></symbol><symbol id="icon-twitter-1" viewBox="0 0 37 32"><path d="M33.469 8.284c1.458-1.094 2.771-2.406 3.792-3.938a14.363 14.363 0 0 1-4.375 1.167c1.604-.948 2.771-2.406 3.355-4.229a15.87 15.87 0 0 1-4.705 1.875l-.108.02A7.635 7.635 0 0 0 25.856.774h-.045.002-.001a7.655 7.655 0 0 0-7.655 7.655c0 .583.074 1.167.22 1.75A22.202 22.202 0 0 1 2.583 2.194l-.029-.036c-.657 1.094-1.021 2.406-1.021 3.865a7.536 7.536 0 0 0 3.426 6.345c-1.239-.074-2.479-.365-3.499-.948v.073c0 3.719 2.624 6.782 6.124 7.51-.582.146-1.312.292-1.968.292-.511 0-.948-.074-1.459-.146.949 3.062 3.792 5.25 7.147 5.323-2.625 2.043-5.906 3.282-9.479 3.282-.656 0-1.239-.074-1.823-.146 3.355 2.187 7.364 3.427 11.74 3.427 14.073 0 21.729-11.595 21.729-21.729V8.285z"/></symbol><symbol id="icon-facebook" viewBox="0 0 32 32"><path d="M31.5 16.343c0-8.562-6.938-15.5-15.5-15.5S.5 7.781.5 16.343c0 7.75 5.625 14.188 13.062 15.312V20.843H9.624v-4.5h3.938v-3.375c0-3.876 2.313-6.063 5.812-6.063 1.751 0 3.501.313 3.501.313v3.813h-1.938c-1.937 0-2.562 1.187-2.562 2.437v2.875h4.312l-.688 4.5h-3.624v10.812C25.812 30.53 31.5 24.093 31.5 16.343z"/></symbol><symbol id="icon-close-black" viewBox="0 0 32 32"><path d="m26.667 7.303-1.97-1.97-7.808 7.808-7.808-7.808-1.97 1.97 7.808 7.808-7.808 7.808 1.97 1.97 7.808-7.808 7.808 7.808 1.97-1.97-7.808-7.808 7.808-7.808z"/></symbol><symbol id="icon-email-black" viewBox="0 0 32 32"><path d="M26.667 5.333H5.334A2.662 2.662 0 0 0 2.682 8l-.014 16c0 1.467 1.2 2.667 2.667 2.667h21.333c1.467 0 2.667-1.2 2.667-2.667V8c0-1.467-1.2-2.667-2.667-2.667zm-.534 5.668-9.426 5.892a1.343 1.343 0 0 1-1.421-.004l.006.003L5.866 11A1.133 1.133 0 1 1 7.07 9.083l-.004-.003 8.933 5.586 8.933-5.588a1.132 1.132 0 1 1 1.204 1.916l-.005.003z"/></symbol><symbol id="icon-person-black" viewBox="0 0 32 32"><path d="M16 16a5.333 5.333 0 1 0 0-10.666A5.333 5.333 0 1 0 16 16zm0 2.667c-3.561 0-10.667 1.787-10.667 5.333v1.333c0 .732.599 1.333 1.333 1.333h18.667c.732 0 1.333-.601 1.333-1.333V24c0-3.547-7.108-5.333-10.667-5.333z"/></symbol><symbol id="icon-phone-black" viewBox="0 0 32 32"><path d="m24.882 19.774-3.268-.373a2.552 2.552 0 0 0-2.11.732l-2.368 2.368c-3.669-1.894-6.585-4.81-8.427-8.372l-.051-.108 2.382-2.377a2.552 2.552 0 0 0 .731-2.122l.001.012-.373-3.243a2.578 2.578 0 0 0-2.557-2.276H6.613c-1.454 0-2.663 1.209-2.574 2.661.683 10.987 9.47 19.762 20.444 20.444 1.452.089 2.663-1.12 2.663-2.574v-2.238a2.549 2.549 0 0 0-2.253-2.532l-.012-.001z"/></symbol><symbol id="icon-check" viewBox="0 0 42 32"><path stroke-width=".64" d="m6.262 15.206-.221-.211-.221.208-3.085 2.925.243.234 11.408 10.88.221-.211L38.863 5.892l-.243-.23-3.043-2.902-.221.211-20.97 19.987-8.125-7.75z"/></symbol></defs></svg>